<?xml version="1.0" encoding="UTF-8"?>
<svg width="96px" height="118px" viewBox="0 0 96 118" version="1.1" xmlns="http://www.w3.org/2000/svg" xmlns:xlink="http://www.w3.org/1999/xlink">
    <!-- Generator: Sketch 46.1 (44463) - http://www.bohemiancoding.com/sketch -->
    <title>st-logo--base</title>
    <desc>Created with Sketch.</desc>
    <defs></defs>
    <g id="Logo" stroke="none" stroke-width="1" fill="none" fill-rule="evenodd">
        <g id="st-logo--base" fill="#121738">
            <g id="Group-2" transform="translate(0.000000, 4.000000)">
                <g id="Group" transform="translate(18.000000, 0.000000)" fill-rule="nonzero">
                    <path d="M30,59 C46.0162577,59 59,46.0162577 59,30 C59,13.9837423 46.0162577,1 30,1 C13.9837423,1 1,13.9837423 1,30 C1,46.0162577 13.9837423,59 30,59 Z M30,60 C13.4314575,60 0,46.5685425 0,30 C0,13.4314575 13.4314575,0 30,0 C46.5685425,0 60,13.4314575 60,30 C60,46.5685425 46.5685425,60 30,60 Z" id="Oval-2"></path>
                    <g id="Mask-Copy" transform="translate(10.000000, 12.000000)">
                        <path d="M15,29.5 C15.2761424,29.5 15.5,29.2761424 15.5,29 L15.5,9.30277564 C15.5,9.13559904 15.4164494,8.97948338 15.2773501,8.88675049 C15.0475858,8.73357426 14.7371511,8.7956612 14.5839749,9.02542554 L1.45249194,28.7226499 C1.39773611,28.8047837 1.36851709,28.9012875 1.36851709,29 C1.36851709,29.2761424 1.59237472,29.5 1.86851709,29.5 L15,29.5 Z M15,30.5 L1.86851709,30.5 C1.04008997,30.5 0.368517092,29.8284271 0.368517092,29 C0.368517092,28.7038625 0.456174133,28.414351 0.62044165,28.1679497 L13.7519246,8.47072534 C14.2114532,7.78143231 15.1427573,7.59517151 15.8320503,8.0547002 C16.2493483,8.33289886 16.5,8.80124586 16.5,9.30277564 L16.5,29 C16.5,29.8284271 15.8284271,30.5 15,30.5 Z" id="Mask"></path>
                        <path d="M38.1314829,29.5 C38.2301954,29.5 38.3266992,29.470781 38.408833,29.4160251 C38.6385974,29.2628489 38.7006843,28.9524142 38.5475081,28.7226499 L21.4160251,3.02542554 C21.3232923,2.88632621 21.1671766,2.80277564 21,2.80277564 C20.7238576,2.80277564 20.5,3.02663326 20.5,3.30277564 L20.5,29 C20.5,29.2761424 20.7238576,29.5 21,29.5 L38.1314829,29.5 Z M38.1314829,30.5 L21,30.5 C20.1715729,30.5 19.5,29.8284271 19.5,29 L19.5,3.30277564 C19.5,2.47434851 20.1715729,1.80277564 21,1.80277564 C21.5015298,1.80277564 21.9698768,2.05342734 22.2480754,2.47072534 L39.3795583,28.1679497 C39.839087,28.8572427 39.6528262,29.7885468 38.9635332,30.2480754 C38.7171319,30.412343 38.4276204,30.5 38.1314829,30.5 Z"></path>
                    </g>
                </g>
                <path d="M13.4216437,71.6343257 C12.0634348,71.2014902 10.6305987,70.9850718 9.12313557,70.9850718 C7.13806085,70.9850718 5.58955302,71.4029828 4.47761242,72.2388034 C3.36567217,73.074624 2.8097017,74.2537291 2.8097017,75.7761174 C2.8097017,76.3432812 2.8955225,76.8656696 3.06716443,77.3432818 C3.23880636,77.8208941 3.46641846,78.2276103 3.75000036,78.5634313 C4.03358261,78.8992522 4.36194099,79.2052222 4.73507515,79.4813419 C5.10820966,79.7574609 5.49626931,79.9999985 5.89925445,80.2089539 C6.30223959,80.4179087 6.7126873,80.6156702 7.13059793,80.8022376 C7.54850822,80.9888044 7.94029933,81.1753718 8.30597126,81.3619392 C8.67164319,81.5485059 9.00000122,81.7462674 9.29104605,81.9552229 C9.58209087,82.1641777 9.80970262,82.4104467 9.97388198,82.694029 C10.1380613,82.9776109 10.2201507,83.2835812 10.2201507,83.6119396 C10.2201507,84.1940292 9.98507601,84.6529845 9.51492668,84.9888055 C9.04477735,85.3246264 8.3917924,85.4925369 7.55597114,85.4925369 C6.31716474,85.4925369 4.81716449,85.1641789 3.0559704,84.5074621 L2.87686589,84.5074621 L2.87686589,87.4179104 C4.20522455,87.9253732 5.742538,88.1791045 7.48880695,88.1791045 C9.57835976,88.1791045 11.2238824,87.7425373 12.4253749,86.8694028 C13.6268681,85.9962683 14.227614,84.7313427 14.227614,83.0746261 C14.227614,82.3134316 14.0895538,81.6343271 13.8134348,81.0373123 C13.5373145,80.4402975 13.1828373,79.9514912 12.7500018,79.5708941 C12.3171664,79.1902971 11.8395542,78.8582072 11.3171658,78.5746253 C10.7947774,78.2910434 10.2686579,78.0373118 9.73880732,77.8134312 C9.20895603,77.5895505 8.72388155,77.3619388 8.2835832,77.1305952 C7.84328484,76.8992517 7.48880695,76.6268638 7.22015019,76.3134309 C6.95149343,75.999998 6.81716505,75.6492513 6.81716505,75.2611919 C6.81716505,74.7686545 7.01865762,74.3805952 7.42164276,74.0970126 C7.8246279,73.8134301 8.42164269,73.6716394 9.21268783,73.6716394 C10.3470161,73.6716394 11.6902999,73.9402962 13.2425392,74.4776097 L13.4216437,74.4776097 L13.4216437,71.6343257 Z M31.4440325,88 L27.369405,88 L26.1604495,84.1940292 L20.1604486,84.1940292 L18.9291051,88 L15.5037314,88 L21.391792,71.1641763 L25.6455241,71.1641763 L31.4440325,88 Z M23.2276132,74.8582068 L21.0559711,81.4626855 L25.3097031,81.4626855 L23.2276132,74.8582068 Z M33.5261197,71.1641763 L33.5261197,88 L37.3544786,88 L37.3544786,71.1641763 L33.5261197,71.1641763 Z M41.2052242,71.1641763 L41.2052242,88 L51.3470169,88 L51.3470169,85.0447756 L45.033583,85.0447756 L45.033583,71.1641763 L41.2052242,71.1641763 Z M53.5634332,71.1641763 L53.5634332,88 L57.391792,88 L57.391792,71.1641763 L53.5634332,71.1641763 Z M61.2425376,71.1641763 L61.2425376,88 L64.5783591,88 L64.5783591,76.9402967 L72.1679126,88 L75.503734,88 L75.503734,71.1641763 L72.1679126,71.1641763 L72.1679126,81.8880587 L64.9813442,71.1641763 L61.2425376,71.1641763 Z M86.6082105,78.9328343 L86.6082105,81.7537303 L89.3171661,81.7537303 L89.3171661,85.2686563 C88.7500016,85.4029846 88.1753749,85.4701488 87.5932852,85.4701488 C86.0410466,85.4701488 84.8246283,84.962686 83.9440309,83.9477605 C83.0634339,82.9328354 82.6231352,81.4701484 82.6231352,79.5597001 C82.6231359,75.723879 84.4962703,73.8059678 88.2425391,73.8059678 C89.5858229,73.8059678 90.9141809,74.0149226 92.2276144,74.4328336 L92.4067189,74.4328336 L92.4067189,71.4999973 C91.1082112,71.1567141 89.6679129,70.9850718 88.0858226,70.9850718 C86.6380608,70.9850718 85.335822,71.1641763 84.1791056,71.5223854 C83.0223889,71.8805944 82.02612,72.4104457 81.1902991,73.1119379 C80.3544782,73.8134314 79.7089558,74.7276102 79.2537316,75.8544756 C78.7985078,76.981341 78.5708957,78.2761176 78.5708957,79.7388046 C78.5708957,81.1567155 78.7835823,82.4141782 79.2089555,83.5111933 C79.6343287,84.6082084 80.246269,85.4999998 81.0447767,86.1865669 C81.8432841,86.8731343 82.7873142,87.3880597 83.8768667,87.7313432 C84.9664196,88.0746268 86.1903002,88.2462687 87.5485091,88.2462687 C89.5186587,88.2462687 91.3320918,87.9477613 92.9888085,87.3507462 L92.9888085,78.9328343 L86.6082105,78.9328343 Z" id="SAILING"></path>
                <path d="M2.76716405,95.7761176 L2.76716405,96.4925356 L6.22985118,96.4925356 L6.22985118,107 L7.12537372,107 L7.12537372,96.4925356 L10.5880609,96.4925356 L10.5880609,95.7761176 L2.76716405,95.7761176 Z M14.2134329,95.7761176 L14.2134329,102.701492 C14.2134329,102.950248 14.2184082,103.181591 14.2283583,103.395522 C14.2383087,103.609452 14.2557217,103.823383 14.2805971,104.037313 C14.3054726,104.251243 14.3477613,104.470149 14.4074628,104.694029 C14.4671643,104.91791 14.5567166,105.151741 14.6761196,105.395522 C14.7955226,105.639303 14.9398013,105.855721 15.1089555,106.044776 C15.4373137,106.422885 15.867662,106.706468 16.4000005,106.895522 C16.9323392,107.084577 17.5169162,107.179105 18.1537321,107.179105 C18.790548,107.179105 19.3801003,107.084577 19.9223891,106.895522 C20.4646784,106.706468 20.9099518,106.422886 21.2582102,106.044776 C21.4273642,105.855721 21.5716431,105.639303 21.6910461,105.395522 C21.8104491,105.151741 21.9000014,104.91791 21.9597029,104.694029 C22.0194044,104.470149 22.0616926,104.251243 22.0865686,104.037313 C22.1114436,103.823382 22.1288568,103.609452 22.1388074,103.395522 C22.1487579,103.181591 22.1537328,102.950248 22.1537328,102.701492 L22.1537328,95.7761176 L21.3179117,95.7761176 L21.3179117,102.880596 C21.3179117,103.447761 21.2706477,103.93781 21.1761207,104.350746 C21.0815927,104.763681 20.9199014,105.134328 20.691046,105.462686 C20.4621896,105.791045 20.1412945,106.039801 19.7283592,106.208955 C19.315424,106.378109 18.8104486,106.462686 18.2134336,106.462686 C17.6164186,106.462686 17.1114432,106.378109 16.698508,106.208955 C16.2855725,106.039801 15.9646769,105.791045 15.7358213,105.462686 C15.5069653,105.134328 15.3452739,104.763681 15.2507466,104.350746 C15.1562192,103.93781 15.1089555,103.447761 15.1089555,102.880596 L15.1089555,95.7761176 L14.2134329,95.7761176 Z M25.7791044,95.7761176 L25.7791044,96.4925356 L29.2417916,96.4925356 L29.2417916,107 L30.1373141,107 L30.1373141,96.4925356 L33.6000012,96.4925356 L33.6000012,95.7761176 L25.7791044,95.7761176 Z M45.7477629,101.328357 C45.7477629,103.189054 45.3248775,104.629353 44.479106,105.649254 C43.6333344,106.669154 42.4293542,107.179105 40.8671651,107.179105 C39.3348267,107.179105 38.1532346,106.686567 37.3223884,105.701492 C36.4915424,104.716418 36.0761195,103.298507 36.0761195,101.44776 C36.0761195,99.5870636 36.4990053,98.1467653 37.3447764,97.1268641 C38.1905478,96.1069637 39.3945282,95.5970131 40.9567173,95.5970131 C42.4890557,95.5970131 43.6706478,96.0895505 44.501494,97.0746252 C45.3323402,98.0597 45.7477629,99.4776107 45.7477629,101.328357 Z M38.0313437,105.179104 C38.7079607,106.034826 39.6681597,106.462686 40.9119412,106.462686 C42.1557226,106.462686 43.1134341,106.034826 43.785076,105.179104 C44.4567179,104.323383 44.7925388,103.059701 44.7925388,101.388059 C44.7925388,99.7164167 44.4567179,98.4527346 43.785076,97.5970134 C43.1134341,96.7412922 42.1557226,96.3134311 40.9119412,96.3134311 C39.6681597,96.3134311 38.7104483,96.7412922 38.0388064,97.5970134 C37.3671645,98.4527346 37.0313435,99.7164163 37.0313435,101.388059 C37.0313435,103.059701 37.3646769,104.323382 38.0313437,105.179104 Z M53.1791053,101.985074 L50.7910452,101.985074 L50.7910452,107 L49.8955226,107 L49.8955226,95.7761176 L53.0447769,95.7761176 C53.2736328,95.7761176 53.472638,95.7810924 53.6417919,95.7910429 C53.8109463,95.8009935 53.9975135,95.8233816 54.2014935,95.8582071 C54.4054735,95.8930327 54.6094535,95.9477594 54.8134339,96.0223863 C55.0174139,96.0970131 55.2089563,96.1940281 55.3880609,96.3134311 C56.1840806,96.8407941 56.5820909,97.6716403 56.5820909,98.8059688 C56.5820909,99.2736303 56.5199015,99.6915408 56.3955237,100.0597 C56.2711459,100.427859 56.0970162,100.73383 55.8731356,100.977611 C55.6492549,101.221392 55.3955235,101.41791 55.1119414,101.567163 C54.8283593,101.716417 54.512439,101.82587 54.1641801,101.895522 L57.2388074,107 L56.1641804,107 L53.1791053,101.985074 Z M50.7910452,96.4925356 L50.7910452,101.268656 L52.9402993,101.268656 C53.7761203,101.268656 54.393036,101.129352 54.7910458,100.850745 C55.0398019,100.681591 55.2412945,100.425372 55.3955235,100.082088 C55.5497526,99.7388048 55.6268669,99.328357 55.6268669,98.8507449 C55.6268669,97.9452718 55.34826,97.2985059 54.7910458,96.9104461 C54.393036,96.6318388 53.8009962,96.4925356 53.0149261,96.4925356 L50.7910452,96.4925356 Z M60.968657,95.7761176 L60.968657,107 L61.8641796,107 L61.8641796,95.7761176 L60.968657,95.7761176 Z M74.2507479,107 L73.2955238,107 L72.1164192,103.537313 L67.4298512,103.537313 L66.191045,107 L65.355224,107 L69.4746277,95.7761176 L70.3104487,95.7761176 L74.2507479,107 Z M69.8328367,96.8507446 L67.6835826,102.820895 L71.8626878,102.820895 L69.8328367,96.8507446 Z M77.7417914,95.7761176 L77.7417914,107 L83.5328372,107 L83.5328372,106.283582 L78.637314,106.283582 L78.637314,95.7761176 L77.7417914,95.7761176 Z M92.2477625,96.0746251 C91.4218916,95.7960178 90.6059712,95.6567146 89.8000009,95.6567146 C88.7651749,95.6567146 87.9592047,95.9029833 87.3820901,96.3955206 C86.8049757,96.888058 86.5164183,97.5522373 86.5164183,98.3880583 C86.5164183,98.7562179 86.5761198,99.0895509 86.6955228,99.3880585 C86.8149258,99.686566 86.9766175,99.9452726 87.1805975,100.164178 C87.3845775,100.383084 87.6184084,100.579601 87.8820901,100.75373 C88.1457716,100.92786 88.4243787,101.084576 88.7179112,101.22388 L89.5985083,101.64179 C89.892041,101.781094 90.1706479,101.930348 90.4343294,102.089551 C90.6980113,102.248755 90.931842,102.420397 91.135822,102.604477 C91.339802,102.788557 91.5014937,103.014925 91.6208967,103.283581 C91.7402997,103.552238 91.8000012,103.850746 91.8000012,104.179104 C91.8000012,104.855721 91.5636826,105.395522 91.0910459,105.798507 C90.6184087,106.201492 89.9741301,106.402985 89.1582098,106.402985 C88.3024881,106.402985 87.4318412,106.18408 86.546269,105.746268 L86.426866,105.746268 L86.426866,106.582089 C87.2129356,106.940298 88.0736324,107.119403 89.008956,107.119403 C89.3970158,107.119403 89.7676627,107.084577 90.1208965,107.014925 C90.4741302,106.945274 90.8074638,106.835821 91.1208966,106.686567 C91.4343295,106.537313 91.7079616,106.348259 91.9417923,106.119403 C92.175623,105.890547 92.3597028,105.606965 92.4940312,105.268656 C92.6283596,104.930348 92.6955238,104.552238 92.6955238,104.134328 C92.6955238,103.736318 92.6358223,103.375621 92.5164193,103.052238 C92.3970163,102.728855 92.2353245,102.455223 92.0313445,102.231343 C91.8273641,102.007462 91.5935334,101.800994 91.3298519,101.611939 C91.06617,101.422884 90.7875631,101.256218 90.4940309,101.111939 L89.6134337,100.686566 C89.3199015,100.547263 89.0412944,100.400497 88.7776127,100.246268 C88.5139312,100.092039 88.2801002,99.925372 88.07612,99.7462675 C87.8721398,99.5671634 87.7104483,99.3532329 87.5910453,99.1044763 C87.4716423,98.8557198 87.4119408,98.5820882 87.4119408,98.2835807 C87.4119408,97.7064658 87.6208961,97.2437792 88.0388066,96.8955207 C88.4567171,96.5472623 89.0487571,96.3731326 89.8149263,96.3731326 C90.551245,96.3731326 91.3223892,96.5323369 92.1283595,96.8507446 L92.2477625,96.8507446 L92.2477625,96.0746251 Z" id="TUTORIALS"></path>
            </g>
        </g>
    </g>
</svg>