<?xml version="1.0" encoding="UTF-8"?>
<svg width="96px" height="118px" viewBox="0 0 96 118" version="1.1" xmlns="http://www.w3.org/2000/svg" xmlns:xlink="http://www.w3.org/1999/xlink">
    <!-- Generator: Sketch 46.1 (44463) - http://www.bohemiancoding.com/sketch -->
    <title>st-logo--active</title>
    <desc>Created with Sketch.</desc>
    <defs></defs>
    <g id="Logo" stroke="none" stroke-width="1" fill="none" fill-rule="evenodd">
        <g id="st-logo--active">
            <g id="Group-3">
                <rect id="Rectangle-3-Copy" fill="#B7E3E4" x="0" y="106" width="96" height="8"></rect>
                <g id="Group-Copy" transform="translate(14.000000, 0.000000)" fill-rule="nonzero">
                    <path d="M34,63 C50.0162577,63 63,50.0162577 63,34 C63,17.9837423 50.0162577,5 34,5 C17.9837423,5 5,17.9837423 5,34 C5,50.0162577 17.9837423,63 34,63 Z M34,64 C17.4314575,64 4,50.5685425 4,34 C4,17.4314575 17.4314575,4 34,4 C50.5685425,4 64,17.4314575 64,34 C64,50.5685425 50.5685425,64 34,64 Z" id="Oval-2" fill="#121738"></path>
                    <path d="M34,67 C52.2253967,67 67,52.2253967 67,34 C67,15.7746033 52.2253967,1 34,1 C15.7746033,1 1,15.7746033 1,34 C1,52.2253967 15.7746033,67 34,67 Z M34,68 C15.2223185,68 0,52.7776815 0,34 C0,15.2223185 15.2223185,0 34,0 C52.7776815,0 68,15.2223185 68,34 C68,52.7776815 52.7776815,68 34,68 Z" id="Oval-2" fill="#B7E3E4"></path>
                    <g id="Mask-Copy" transform="translate(14.000000, 16.000000)" fill="#121738">
                        <path d="M15,29.5 C15.2761424,29.5 15.5,29.2761424 15.5,29 L15.5,9.30277564 C15.5,9.13559904 15.4164494,8.97948338 15.2773501,8.88675049 C15.0475858,8.73357426 14.7371511,8.7956612 14.5839749,9.02542554 L1.45249194,28.7226499 C1.39773611,28.8047837 1.36851709,28.9012875 1.36851709,29 C1.36851709,29.2761424 1.59237472,29.5 1.86851709,29.5 L15,29.5 Z M15,30.5 L1.86851709,30.5 C1.04008997,30.5 0.368517092,29.8284271 0.368517092,29 C0.368517092,28.7038625 0.456174133,28.414351 0.62044165,28.1679497 L13.7519246,8.47072534 C14.2114532,7.78143231 15.1427573,7.59517151 15.8320503,8.0547002 C16.2493483,8.33289886 16.5,8.80124586 16.5,9.30277564 L16.5,29 C16.5,29.8284271 15.8284271,30.5 15,30.5 Z" id="Mask"></path>
                        <path d="M38.1314829,29.5 C38.2301954,29.5 38.3266992,29.470781 38.408833,29.4160251 C38.6385974,29.2628489 38.7006843,28.9524142 38.5475081,28.7226499 L21.4160251,3.02542554 C21.3232923,2.88632621 21.1671766,2.80277564 21,2.80277564 C20.7238576,2.80277564 20.5,3.02663326 20.5,3.30277564 L20.5,29 C20.5,29.2761424 20.7238576,29.5 21,29.5 L38.1314829,29.5 Z M38.1314829,30.5 L21,30.5 C20.1715729,30.5 19.5,29.8284271 19.5,29 L19.5,3.30277564 C19.5,2.47434851 20.1715729,1.80277564 21,1.80277564 C21.5015298,1.80277564 21.9698768,2.05342734 22.2480754,2.47072534 L39.3795583,28.1679497 C39.839087,28.8572427 39.6528262,29.7885468 38.9635332,30.2480754 C38.7171319,30.412343 38.4276204,30.5 38.1314829,30.5 Z"></path>
                    </g>
                </g>
                <path d="M13.4216437,75.6343257 C12.0634348,75.2014902 10.6305987,74.9850718 9.12313557,74.9850718 C7.13806085,74.9850718 5.58955302,75.4029828 4.47761242,76.2388034 C3.36567217,77.074624 2.8097017,78.2537291 2.8097017,79.7761174 C2.8097017,80.3432812 2.8955225,80.8656696 3.06716443,81.3432818 C3.23880636,81.8208941 3.46641846,82.2276103 3.75000036,82.5634313 C4.03358261,82.8992522 4.36194099,83.2052222 4.73507515,83.4813419 C5.10820966,83.7574609 5.49626931,83.9999985 5.89925445,84.2089539 C6.30223959,84.4179087 6.7126873,84.6156702 7.13059793,84.8022376 C7.54850822,84.9888044 7.94029933,85.1753718 8.30597126,85.3619392 C8.67164319,85.5485059 9.00000122,85.7462674 9.29104605,85.9552229 C9.58209087,86.1641777 9.80970262,86.4104467 9.97388198,86.694029 C10.1380613,86.9776109 10.2201507,87.2835812 10.2201507,87.6119396 C10.2201507,88.1940292 9.98507601,88.6529845 9.51492668,88.9888055 C9.04477735,89.3246264 8.3917924,89.4925369 7.55597114,89.4925369 C6.31716474,89.4925369 4.81716449,89.1641789 3.0559704,88.5074621 L2.87686589,88.5074621 L2.87686589,91.4179104 C4.20522455,91.9253732 5.742538,92.1791045 7.48880695,92.1791045 C9.57835976,92.1791045 11.2238824,91.7425373 12.4253749,90.8694028 C13.6268681,89.9962683 14.227614,88.7313427 14.227614,87.0746261 C14.227614,86.3134316 14.0895538,85.6343271 13.8134348,85.0373123 C13.5373145,84.4402975 13.1828373,83.9514912 12.7500018,83.5708941 C12.3171664,83.1902971 11.8395542,82.8582072 11.3171658,82.5746253 C10.7947774,82.2910434 10.2686579,82.0373118 9.73880732,81.8134312 C9.20895603,81.5895505 8.72388155,81.3619388 8.2835832,81.1305952 C7.84328484,80.8992517 7.48880695,80.6268638 7.22015019,80.3134309 C6.95149343,79.999998 6.81716505,79.6492513 6.81716505,79.2611919 C6.81716505,78.7686545 7.01865762,78.3805952 7.42164276,78.0970126 C7.8246279,77.8134301 8.42164269,77.6716394 9.21268783,77.6716394 C10.3470161,77.6716394 11.6902999,77.9402962 13.2425392,78.4776097 L13.4216437,78.4776097 L13.4216437,75.6343257 Z M31.4440325,92 L27.369405,92 L26.1604495,88.1940292 L20.1604486,88.1940292 L18.9291051,92 L15.5037314,92 L21.391792,75.1641763 L25.6455241,75.1641763 L31.4440325,92 Z M23.2276132,78.8582068 L21.0559711,85.4626855 L25.3097031,85.4626855 L23.2276132,78.8582068 Z M33.5261197,75.1641763 L33.5261197,92 L37.3544786,92 L37.3544786,75.1641763 L33.5261197,75.1641763 Z M41.2052242,75.1641763 L41.2052242,92 L51.3470169,92 L51.3470169,89.0447756 L45.033583,89.0447756 L45.033583,75.1641763 L41.2052242,75.1641763 Z M53.5634332,75.1641763 L53.5634332,92 L57.391792,92 L57.391792,75.1641763 L53.5634332,75.1641763 Z M61.2425376,75.1641763 L61.2425376,92 L64.5783591,92 L64.5783591,80.9402967 L72.1679126,92 L75.503734,92 L75.503734,75.1641763 L72.1679126,75.1641763 L72.1679126,85.8880587 L64.9813442,75.1641763 L61.2425376,75.1641763 Z M86.6082105,82.9328343 L86.6082105,85.7537303 L89.3171661,85.7537303 L89.3171661,89.2686563 C88.7500016,89.4029846 88.1753749,89.4701488 87.5932852,89.4701488 C86.0410466,89.4701488 84.8246283,88.962686 83.9440309,87.9477605 C83.0634339,86.9328354 82.6231352,85.4701484 82.6231352,83.5597001 C82.6231359,79.723879 84.4962703,77.8059678 88.2425391,77.8059678 C89.5858229,77.8059678 90.9141809,78.0149226 92.2276144,78.4328336 L92.4067189,78.4328336 L92.4067189,75.4999973 C91.1082112,75.1567141 89.6679129,74.9850718 88.0858226,74.9850718 C86.6380608,74.9850718 85.335822,75.1641763 84.1791056,75.5223854 C83.0223889,75.8805944 82.02612,76.4104457 81.1902991,77.1119379 C80.3544782,77.8134314 79.7089558,78.7276102 79.2537316,79.8544756 C78.7985078,80.981341 78.5708957,82.2761176 78.5708957,83.7388046 C78.5708957,85.1567155 78.7835823,86.4141782 79.2089555,87.5111933 C79.6343287,88.6082084 80.246269,89.4999998 81.0447767,90.1865669 C81.8432841,90.8731343 82.7873142,91.3880597 83.8768667,91.7313432 C84.9664196,92.0746268 86.1903002,92.2462687 87.5485091,92.2462687 C89.5186587,92.2462687 91.3320918,91.9477613 92.9888085,91.3507462 L92.9888085,82.9328343 L86.6082105,82.9328343 Z" id="SAILING-Copy" fill="#121738"></path>
                <path d="M2.76716405,99.7761176 L2.76716405,100.492536 L6.22985118,100.492536 L6.22985118,111 L7.12537372,111 L7.12537372,100.492536 L10.5880609,100.492536 L10.5880609,99.7761176 L2.76716405,99.7761176 Z M14.2134329,99.7761176 L14.2134329,106.701492 C14.2134329,106.950248 14.2184082,107.181591 14.2283583,107.395522 C14.2383087,107.609452 14.2557217,107.823383 14.2805971,108.037313 C14.3054726,108.251243 14.3477613,108.470149 14.4074628,108.694029 C14.4671643,108.91791 14.5567166,109.151741 14.6761196,109.395522 C14.7955226,109.639303 14.9398013,109.855721 15.1089555,110.044776 C15.4373137,110.422885 15.867662,110.706468 16.4000005,110.895522 C16.9323392,111.084577 17.5169162,111.179105 18.1537321,111.179105 C18.790548,111.179105 19.3801003,111.084577 19.9223891,110.895522 C20.4646784,110.706468 20.9099518,110.422886 21.2582102,110.044776 C21.4273642,109.855721 21.5716431,109.639303 21.6910461,109.395522 C21.8104491,109.151741 21.9000014,108.91791 21.9597029,108.694029 C22.0194044,108.470149 22.0616926,108.251243 22.0865686,108.037313 C22.1114436,107.823382 22.1288568,107.609452 22.1388074,107.395522 C22.1487579,107.181591 22.1537328,106.950248 22.1537328,106.701492 L22.1537328,99.7761176 L21.3179117,99.7761176 L21.3179117,106.880596 C21.3179117,107.447761 21.2706477,107.93781 21.1761207,108.350746 C21.0815927,108.763681 20.9199014,109.134328 20.691046,109.462686 C20.4621896,109.791045 20.1412945,110.039801 19.7283592,110.208955 C19.315424,110.378109 18.8104486,110.462686 18.2134336,110.462686 C17.6164186,110.462686 17.1114432,110.378109 16.698508,110.208955 C16.2855725,110.039801 15.9646769,109.791045 15.7358213,109.462686 C15.5069653,109.134328 15.3452739,108.763681 15.2507466,108.350746 C15.1562192,107.93781 15.1089555,107.447761 15.1089555,106.880596 L15.1089555,99.7761176 L14.2134329,99.7761176 Z M25.7791044,99.7761176 L25.7791044,100.492536 L29.2417916,100.492536 L29.2417916,111 L30.1373141,111 L30.1373141,100.492536 L33.6000012,100.492536 L33.6000012,99.7761176 L25.7791044,99.7761176 Z M45.7477629,105.328357 C45.7477629,107.189054 45.3248775,108.629353 44.479106,109.649254 C43.6333344,110.669154 42.4293542,111.179105 40.8671651,111.179105 C39.3348267,111.179105 38.1532346,110.686567 37.3223884,109.701492 C36.4915424,108.716418 36.0761195,107.298507 36.0761195,105.44776 C36.0761195,103.587064 36.4990053,102.146765 37.3447764,101.126864 C38.1905478,100.106964 39.3945282,99.5970131 40.9567173,99.5970131 C42.4890557,99.5970131 43.6706478,100.08955 44.501494,101.074625 C45.3323402,102.0597 45.7477629,103.477611 45.7477629,105.328357 Z M38.0313437,109.179104 C38.7079607,110.034826 39.6681597,110.462686 40.9119412,110.462686 C42.1557226,110.462686 43.1134341,110.034826 43.785076,109.179104 C44.4567179,108.323383 44.7925388,107.059701 44.7925388,105.388059 C44.7925388,103.716417 44.4567179,102.452735 43.785076,101.597013 C43.1134341,100.741292 42.1557226,100.313431 40.9119412,100.313431 C39.6681597,100.313431 38.7104483,100.741292 38.0388064,101.597013 C37.3671645,102.452735 37.0313435,103.716416 37.0313435,105.388059 C37.0313435,107.059701 37.3646769,108.323382 38.0313437,109.179104 Z M53.1791053,105.985074 L50.7910452,105.985074 L50.7910452,111 L49.8955226,111 L49.8955226,99.7761176 L53.0447769,99.7761176 C53.2736328,99.7761176 53.472638,99.7810924 53.6417919,99.7910429 C53.8109463,99.8009935 53.9975135,99.8233816 54.2014935,99.8582071 C54.4054735,99.8930327 54.6094535,99.9477594 54.8134339,100.022386 C55.0174139,100.097013 55.2089563,100.194028 55.3880609,100.313431 C56.1840806,100.840794 56.5820909,101.67164 56.5820909,102.805969 C56.5820909,103.27363 56.5199015,103.691541 56.3955237,104.0597 C56.2711459,104.427859 56.0970162,104.73383 55.8731356,104.977611 C55.6492549,105.221392 55.3955235,105.41791 55.1119414,105.567163 C54.8283593,105.716417 54.512439,105.82587 54.1641801,105.895522 L57.2388074,111 L56.1641804,111 L53.1791053,105.985074 Z M50.7910452,100.492536 L50.7910452,105.268656 L52.9402993,105.268656 C53.7761203,105.268656 54.393036,105.129352 54.7910458,104.850745 C55.0398019,104.681591 55.2412945,104.425372 55.3955235,104.082088 C55.5497526,103.738805 55.6268669,103.328357 55.6268669,102.850745 C55.6268669,101.945272 55.34826,101.298506 54.7910458,100.910446 C54.393036,100.631839 53.8009962,100.492536 53.0149261,100.492536 L50.7910452,100.492536 Z M60.968657,99.7761176 L60.968657,111 L61.8641796,111 L61.8641796,99.7761176 L60.968657,99.7761176 Z M74.2507479,111 L73.2955238,111 L72.1164192,107.537313 L67.4298512,107.537313 L66.191045,111 L65.355224,111 L69.4746277,99.7761176 L70.3104487,99.7761176 L74.2507479,111 Z M69.8328367,100.850745 L67.6835826,106.820895 L71.8626878,106.820895 L69.8328367,100.850745 Z M77.7417914,99.7761176 L77.7417914,111 L83.5328372,111 L83.5328372,110.283582 L78.637314,110.283582 L78.637314,99.7761176 L77.7417914,99.7761176 Z M92.2477625,100.074625 C91.4218916,99.7960178 90.6059712,99.6567146 89.8000009,99.6567146 C88.7651749,99.6567146 87.9592047,99.9029833 87.3820901,100.395521 C86.8049757,100.888058 86.5164183,101.552237 86.5164183,102.388058 C86.5164183,102.756218 86.5761198,103.089551 86.6955228,103.388058 C86.8149258,103.686566 86.9766175,103.945273 87.1805975,104.164178 C87.3845775,104.383084 87.6184084,104.579601 87.8820901,104.75373 C88.1457716,104.92786 88.4243787,105.084576 88.7179112,105.22388 L89.5985083,105.64179 C89.892041,105.781094 90.1706479,105.930348 90.4343294,106.089551 C90.6980113,106.248755 90.931842,106.420397 91.135822,106.604477 C91.339802,106.788557 91.5014937,107.014925 91.6208967,107.283581 C91.7402997,107.552238 91.8000012,107.850746 91.8000012,108.179104 C91.8000012,108.855721 91.5636826,109.395522 91.0910459,109.798507 C90.6184087,110.201492 89.9741301,110.402985 89.1582098,110.402985 C88.3024881,110.402985 87.4318412,110.18408 86.546269,109.746268 L86.426866,109.746268 L86.426866,110.582089 C87.2129356,110.940298 88.0736324,111.119403 89.008956,111.119403 C89.3970158,111.119403 89.7676627,111.084577 90.1208965,111.014925 C90.4741302,110.945274 90.8074638,110.835821 91.1208966,110.686567 C91.4343295,110.537313 91.7079616,110.348259 91.9417923,110.119403 C92.175623,109.890547 92.3597028,109.606965 92.4940312,109.268656 C92.6283596,108.930348 92.6955238,108.552238 92.6955238,108.134328 C92.6955238,107.736318 92.6358223,107.375621 92.5164193,107.052238 C92.3970163,106.728855 92.2353245,106.455223 92.0313445,106.231343 C91.8273641,106.007462 91.5935334,105.800994 91.3298519,105.611939 C91.06617,105.422884 90.7875631,105.256218 90.4940309,105.111939 L89.6134337,104.686566 C89.3199015,104.547263 89.0412944,104.400497 88.7776127,104.246268 C88.5139312,104.092039 88.2801002,103.925372 88.07612,103.746267 C87.8721398,103.567163 87.7104483,103.353233 87.5910453,103.104476 C87.4716423,102.85572 87.4119408,102.582088 87.4119408,102.283581 C87.4119408,101.706466 87.6208961,101.243779 88.0388066,100.895521 C88.4567171,100.547262 89.0487571,100.373133 89.8149263,100.373133 C90.551245,100.373133 91.3223892,100.532337 92.1283595,100.850745 L92.2477625,100.850745 L92.2477625,100.074625 Z" id="TUTORIALS" fill="#121738"></path>
            </g>
        </g>
    </g>
</svg>